<svg xmlns="http://www.w3.org/2000/svg" xmlns:xlink="http://www.w3.org/1999/xlink" version="1.1" width="369.47187" height="274.4703" viewBox="0 0 369.47187 274.4703">
<defs>
<clipPath id="clip_0">
<path transform="matrix(1,0,0,-1,0,274.4703)" d="M59.871877 46.1375H362.27189V262.1375H59.871877Z"/>
</clipPath>
<clipPath id="clip_1">
<path transform="matrix(1,0,0,-1,73.61733,24.614869)" d="M-18-18H18V18H-18Z"/>
</clipPath>
<clipPath id="clip_2">
<path transform="matrix(1,0,0,-1,112.17789,59.856184)" d="M-18-18H18V18H-18Z"/>
</clipPath>
<clipPath id="clip_3">
<path transform="matrix(1,0,0,-1,150.73844,94.184368)" d="M-18-18H18V18H-18Z"/>
</clipPath>
<clipPath id="clip_4">
<path transform="matrix(1,0,0,-1,189.29898,126.62584)" d="M-18-18H18V18H-18Z"/>
</clipPath>
<clipPath id="clip_5">
<path transform="matrix(1,0,0,-1,0,274.4703)" d="M59.871877 46.1375H362.27189V262.1375H59.871877Z"/>
</clipPath>
<clipPath id="clip_6">
<path transform="matrix(1,0,0,-1,73.61733,48.378953)" d="M-18-18H18V18H-18Z"/>
</clipPath>
<clipPath id="clip_7">
<path transform="matrix(1,0,0,-1,112.17789,98.05678)" d="M-18-18H18V18H-18Z"/>
</clipPath>
<clipPath id="clip_8">
<path transform="matrix(1,0,0,-1,150.73844,135.26996)" d="M-18-18H18V18H-18Z"/>
</clipPath>
<clipPath id="clip_9">
<path transform="matrix(1,0,0,-1,189.29898,161.06298)" d="M-18-18H18V18H-18Z"/>
</clipPath>
<clipPath id="clip_10">
<path transform="matrix(1,0,0,-1,231.23215,179.89601)" d="M-18-18H18V18H-18Z"/>
</clipPath>
<clipPath id="clip_11">
<path transform="matrix(1,0,0,-1,0,274.4703)" d="M59.871877 46.1375H362.27189V262.1375H59.871877Z"/>
</clipPath>
<clipPath id="clip_12">
<path transform="matrix(1,0,0,-1,0,274.4703)" d="M59.871877 46.1375H362.27189V262.1375H59.871877Z"/>
</clipPath>
<clipPath id="clip_13">
<path transform="matrix(1,0,0,-1,0,274.4703)" d="M59.871877 46.1375H362.27189V262.1375H59.871877Z"/>
</clipPath>
<clipPath id="clip_14">
<path transform="matrix(1,0,0,-1,0,274.4703)" d="M59.871877 46.1375H362.27189V262.1375H59.871877Z"/>
</clipPath>
<clipPath id="clip_15">
<path transform="matrix(1,0,0,-1,0,274.4703)" d="M59.871877 46.1375H362.27189V262.1375H59.871877Z"/>
</clipPath>
<clipPath id="clip_16">
<path transform="matrix(1,0,0,-1,0,274.4703)" d="M59.871877 46.1375H362.27189V262.1375H59.871877Z"/>
</clipPath>
<clipPath id="clip_17">
<path transform="matrix(1,0,0,-1,0,274.4703)" d="M59.871877 46.1375H362.27189V262.1375H59.871877Z"/>
</clipPath>
<clipPath id="clip_18">
<path transform="matrix(1,0,0,-1,0,274.4703)" d="M59.871877 46.1375H362.27189V262.1375H59.871877Z"/>
</clipPath>
<clipPath id="clip_19">
<path transform="matrix(1,0,0,-1,0,274.4703)" d="M59.871877 46.1375H362.27189V262.1375H59.871877Z"/>
</clipPath>
<clipPath id="clip_20">
<path transform="matrix(1,0,0,-1,0,274.4703)" d="M59.871877 46.1375H362.27189V262.1375H59.871877Z"/>
</clipPath>
<clipPath id="clip_21">
<path transform="matrix(1,0,0,-1,0,274.4703)" d="M59.871877 46.1375H362.27189V262.1375H59.871877Z"/>
</clipPath>
<clipPath id="clip_22">
<path transform="matrix(1,0,0,-1,0,274.4703)" d="M59.871877 46.1375H362.27189V262.1375H59.871877Z"/>
</clipPath>
<clipPath id="clip_23">
<path transform="matrix(1,0,0,-1,73.61733,22.16951)" d="M-10-10H10V10H-10Z"/>
</clipPath>
<clipPath id="clip_24">
<path transform="matrix(1,0,0,-1,112.17789,67.35615)" d="M-10-10H10V10H-10Z"/>
</clipPath>
<clipPath id="clip_25">
<path transform="matrix(1,0,0,-1,134.73436,89.61004)" d="M-10-10H10V10H-10Z"/>
</clipPath>
<clipPath id="clip_26">
<path transform="matrix(1,0,0,-1,150.73844,102.58404)" d="M-10-10H10V10H-10Z"/>
</clipPath>
<clipPath id="clip_27">
<path transform="matrix(1,0,0,-1,189.29898,131.78174)" d="M-10-10H10V10H-10Z"/>
</clipPath>
<clipPath id="clip_28">
<path transform="matrix(1,0,0,-1,0,274.4703)" d="M59.871877 46.1375H362.27189V262.1375H59.871877Z"/>
</clipPath>
<clipPath id="clip_29">
<path transform="matrix(1,0,0,-1,73.61733,52.89772)" d="M-10-10H10V10H-10Z"/>
</clipPath>
<clipPath id="clip_30">
<path transform="matrix(1,0,0,-1,112.17789,127.01007)" d="M-10-10H10V10H-10Z"/>
</clipPath>
<clipPath id="clip_31">
<path transform="matrix(1,0,0,-1,134.73436,153.55472)" d="M-10-10H10V10H-10Z"/>
</clipPath>
<clipPath id="clip_32">
<path transform="matrix(1,0,0,-1,150.73844,168.7344)" d="M-10-10H10V10H-10Z"/>
</clipPath>
<clipPath id="clip_33">
<path transform="matrix(1,0,0,-1,189.29898,194.14905)" d="M-10-10H10V10H-10Z"/>
</clipPath>
<clipPath id="clip_34">
<path transform="matrix(1,0,0,-1,240.27326,209.88474)" d="M-10-10H10V10H-10Z"/>
</clipPath>
<clipPath id="clip_35">
<path transform="matrix(1,0,0,-1,278.8338,212.25734)" d="M-10-10H10V10H-10Z"/>
</clipPath>
<clipPath id="clip_36">
<path transform="matrix(1,0,0,-1,317.39436,216.09053)" d="M-10-10H10V10H-10Z"/>
</clipPath>
<clipPath id="clip_37">
<path transform="matrix(1,0,0,-1,0,274.4703)" d="M59.871877 46.1375H362.27189V262.1375H59.871877Z"/>
</clipPath>
<clipPath id="clip_38">
<path transform="matrix(1,0,0,-1,0,274.4703)" d="M59.871877 46.1375H362.27189V262.1375H59.871877Z"/>
</clipPath>
</defs>
<path transform="matrix(1,0,0,-1,0,274.4703)" d="M0 0H369.47187V274.4703H0Z" fill="#ffffff"/>
<path transform="matrix(1,0,0,-1,0,274.4703)" d="M59.871877 46.1375H362.27189V262.1375H59.871877Z" fill="#ffffff"/>
<g clip-path="url(#clip_0)">
<g clip-path="url(#clip_1)">
<g>
<path transform="matrix(1,0,0,-1,73.61733,24.614869)" d="M0-3C.795609-3 1.55874-2.683901 2.12132-2.12132 2.683901-1.55874 3-.795609 3 0 3 .795609 2.683901 1.55874 2.12132 2.12132 1.55874 2.683901 .795609 3 0 3-.795609 3-1.55874 2.683901-2.12132 2.12132-2.683901 1.55874-3 .795609-3 0-3-.795609-2.683901-1.55874-2.12132-2.12132-1.55874-2.683901-.795609-3 0-3Z" fill="#4285f4" fill-opacity=".5"/>
<path transform="matrix(1,0,0,-1,73.61733,24.614869)" stroke-width="3" stroke-linecap="butt" stroke-linejoin="round" fill="none" stroke="#4285f4" stroke-opacity=".5" d="M0-3C.795609-3 1.55874-2.683901 2.12132-2.12132 2.683901-1.55874 3-.795609 3 0 3 .795609 2.683901 1.55874 2.12132 2.12132 1.55874 2.683901 .795609 3 0 3-.795609 3-1.55874 2.683901-2.12132 2.12132-2.683901 1.55874-3 .795609-3 0-3-.795609-2.683901-1.55874-2.12132-2.12132-1.55874-2.683901-.795609-3 0-3Z"/>
</g>
</g>
<g clip-path="url(#clip_2)">
<g>
<path transform="matrix(1,0,0,-1,112.17789,59.856184)" d="M0-3C.795609-3 1.55874-2.683901 2.12132-2.12132 2.683901-1.55874 3-.795609 3 0 3 .795609 2.683901 1.55874 2.12132 2.12132 1.55874 2.683901 .795609 3 0 3-.795609 3-1.55874 2.683901-2.12132 2.12132-2.683901 1.55874-3 .795609-3 0-3-.795609-2.683901-1.55874-2.12132-2.12132-1.55874-2.683901-.795609-3 0-3Z" fill="#4285f4" fill-opacity=".5"/>
<path transform="matrix(1,0,0,-1,112.17789,59.856184)" stroke-width="3" stroke-linecap="butt" stroke-linejoin="round" fill="none" stroke="#4285f4" stroke-opacity=".5" d="M0-3C.795609-3 1.55874-2.683901 2.12132-2.12132 2.683901-1.55874 3-.795609 3 0 3 .795609 2.683901 1.55874 2.12132 2.12132 1.55874 2.683901 .795609 3 0 3-.795609 3-1.55874 2.683901-2.12132 2.12132-2.683901 1.55874-3 .795609-3 0-3-.795609-2.683901-1.55874-2.12132-2.12132-1.55874-2.683901-.795609-3 0-3Z"/>
</g>
</g>
<g clip-path="url(#clip_3)">
<g>
<path transform="matrix(1,0,0,-1,150.73844,94.184368)" d="M0-3C.795609-3 1.55874-2.683901 2.12132-2.12132 2.683901-1.55874 3-.795609 3 0 3 .795609 2.683901 1.55874 2.12132 2.12132 1.55874 2.683901 .795609 3 0 3-.795609 3-1.55874 2.683901-2.12132 2.12132-2.683901 1.55874-3 .795609-3 0-3-.795609-2.683901-1.55874-2.12132-2.12132-1.55874-2.683901-.795609-3 0-3Z" fill="#4285f4" fill-opacity=".5"/>
<path transform="matrix(1,0,0,-1,150.73844,94.184368)" stroke-width="3" stroke-linecap="butt" stroke-linejoin="round" fill="none" stroke="#4285f4" stroke-opacity=".5" d="M0-3C.795609-3 1.55874-2.683901 2.12132-2.12132 2.683901-1.55874 3-.795609 3 0 3 .795609 2.683901 1.55874 2.12132 2.12132 1.55874 2.683901 .795609 3 0 3-.795609 3-1.55874 2.683901-2.12132 2.12132-2.683901 1.55874-3 .795609-3 0-3-.795609-2.683901-1.55874-2.12132-2.12132-1.55874-2.683901-.795609-3 0-3Z"/>
</g>
</g>
<g clip-path="url(#clip_4)">
<g>
<path transform="matrix(1,0,0,-1,189.29898,126.62584)" d="M0-3C.795609-3 1.55874-2.683901 2.12132-2.12132 2.683901-1.55874 3-.795609 3 0 3 .795609 2.683901 1.55874 2.12132 2.12132 1.55874 2.683901 .795609 3 0 3-.795609 3-1.55874 2.683901-2.12132 2.12132-2.683901 1.55874-3 .795609-3 0-3-.795609-2.683901-1.55874-2.12132-2.12132-1.55874-2.683901-.795609-3 0-3Z" fill="#4285f4" fill-opacity=".5"/>
<path transform="matrix(1,0,0,-1,189.29898,126.62584)" stroke-width="3" stroke-linecap="butt" stroke-linejoin="round" fill="none" stroke="#4285f4" stroke-opacity=".5" d="M0-3C.795609-3 1.55874-2.683901 2.12132-2.12132 2.683901-1.55874 3-.795609 3 0 3 .795609 2.683901 1.55874 2.12132 2.12132 1.55874 2.683901 .795609 3 0 3-.795609 3-1.55874 2.683901-2.12132 2.12132-2.683901 1.55874-3 .795609-3 0-3-.795609-2.683901-1.55874-2.12132-2.12132-1.55874-2.683901-.795609-3 0-3Z"/>
</g>
</g>
</g>
<g clip-path="url(#clip_5)">
<g clip-path="url(#clip_6)">
<g>
<path transform="matrix(1,0,0,-1,73.61733,48.378953)" d="M0-3C.795609-3 1.55874-2.683901 2.12132-2.12132 2.683901-1.55874 3-.795609 3 0 3 .795609 2.683901 1.55874 2.12132 2.12132 1.55874 2.683901 .795609 3 0 3-.795609 3-1.55874 2.683901-2.12132 2.12132-2.683901 1.55874-3 .795609-3 0-3-.795609-2.683901-1.55874-2.12132-2.12132-1.55874-2.683901-.795609-3 0-3Z" fill="#ea4335" fill-opacity=".2"/>
<path transform="matrix(1,0,0,-1,73.61733,48.378953)" stroke-width="3" stroke-linecap="butt" stroke-linejoin="round" fill="none" stroke="#ea4335" stroke-opacity=".2" d="M0-3C.795609-3 1.55874-2.683901 2.12132-2.12132 2.683901-1.55874 3-.795609 3 0 3 .795609 2.683901 1.55874 2.12132 2.12132 1.55874 2.683901 .795609 3 0 3-.795609 3-1.55874 2.683901-2.12132 2.12132-2.683901 1.55874-3 .795609-3 0-3-.795609-2.683901-1.55874-2.12132-2.12132-1.55874-2.683901-.795609-3 0-3Z"/>
</g>
</g>
<g clip-path="url(#clip_7)">
<g>
<path transform="matrix(1,0,0,-1,112.17789,98.05678)" d="M0-3C.795609-3 1.55874-2.683901 2.12132-2.12132 2.683901-1.55874 3-.795609 3 0 3 .795609 2.683901 1.55874 2.12132 2.12132 1.55874 2.683901 .795609 3 0 3-.795609 3-1.55874 2.683901-2.12132 2.12132-2.683901 1.55874-3 .795609-3 0-3-.795609-2.683901-1.55874-2.12132-2.12132-1.55874-2.683901-.795609-3 0-3Z" fill="#ea4335" fill-opacity=".2"/>
<path transform="matrix(1,0,0,-1,112.17789,98.05678)" stroke-width="3" stroke-linecap="butt" stroke-linejoin="round" fill="none" stroke="#ea4335" stroke-opacity=".2" d="M0-3C.795609-3 1.55874-2.683901 2.12132-2.12132 2.683901-1.55874 3-.795609 3 0 3 .795609 2.683901 1.55874 2.12132 2.12132 1.55874 2.683901 .795609 3 0 3-.795609 3-1.55874 2.683901-2.12132 2.12132-2.683901 1.55874-3 .795609-3 0-3-.795609-2.683901-1.55874-2.12132-2.12132-1.55874-2.683901-.795609-3 0-3Z"/>
</g>
</g>
<g clip-path="url(#clip_8)">
<g>
<path transform="matrix(1,0,0,-1,150.73844,135.26996)" d="M0-3C.795609-3 1.55874-2.683901 2.12132-2.12132 2.683901-1.55874 3-.795609 3 0 3 .795609 2.683901 1.55874 2.12132 2.12132 1.55874 2.683901 .795609 3 0 3-.795609 3-1.55874 2.683901-2.12132 2.12132-2.683901 1.55874-3 .795609-3 0-3-.795609-2.683901-1.55874-2.12132-2.12132-1.55874-2.683901-.795609-3 0-3Z" fill="#ea4335" fill-opacity=".2"/>
<path transform="matrix(1,0,0,-1,150.73844,135.26996)" stroke-width="3" stroke-linecap="butt" stroke-linejoin="round" fill="none" stroke="#ea4335" stroke-opacity=".2" d="M0-3C.795609-3 1.55874-2.683901 2.12132-2.12132 2.683901-1.55874 3-.795609 3 0 3 .795609 2.683901 1.55874 2.12132 2.12132 1.55874 2.683901 .795609 3 0 3-.795609 3-1.55874 2.683901-2.12132 2.12132-2.683901 1.55874-3 .795609-3 0-3-.795609-2.683901-1.55874-2.12132-2.12132-1.55874-2.683901-.795609-3 0-3Z"/>
</g>
</g>
<g clip-path="url(#clip_9)">
<g>
<path transform="matrix(1,0,0,-1,189.29898,161.06298)" d="M0-3C.795609-3 1.55874-2.683901 2.12132-2.12132 2.683901-1.55874 3-.795609 3 0 3 .795609 2.683901 1.55874 2.12132 2.12132 1.55874 2.683901 .795609 3 0 3-.795609 3-1.55874 2.683901-2.12132 2.12132-2.683901 1.55874-3 .795609-3 0-3-.795609-2.683901-1.55874-2.12132-2.12132-1.55874-2.683901-.795609-3 0-3Z" fill="#ea4335" fill-opacity=".2"/>
<path transform="matrix(1,0,0,-1,189.29898,161.06298)" stroke-width="3" stroke-linecap="butt" stroke-linejoin="round" fill="none" stroke="#ea4335" stroke-opacity=".2" d="M0-3C.795609-3 1.55874-2.683901 2.12132-2.12132 2.683901-1.55874 3-.795609 3 0 3 .795609 2.683901 1.55874 2.12132 2.12132 1.55874 2.683901 .795609 3 0 3-.795609 3-1.55874 2.683901-2.12132 2.12132-2.683901 1.55874-3 .795609-3 0-3-.795609-2.683901-1.55874-2.12132-2.12132-1.55874-2.683901-.795609-3 0-3Z"/>
</g>
</g>
<g clip-path="url(#clip_10)">
<g>
<path transform="matrix(1,0,0,-1,231.23215,179.89601)" d="M0-3C.795609-3 1.55874-2.683901 2.12132-2.12132 2.683901-1.55874 3-.795609 3 0 3 .795609 2.683901 1.55874 2.12132 2.12132 1.55874 2.683901 .795609 3 0 3-.795609 3-1.55874 2.683901-2.12132 2.12132-2.683901 1.55874-3 .795609-3 0-3-.795609-2.683901-1.55874-2.12132-2.12132-1.55874-2.683901-.795609-3 0-3Z" fill="#ea4335" fill-opacity=".2"/>
<path transform="matrix(1,0,0,-1,231.23215,179.89601)" stroke-width="3" stroke-linecap="butt" stroke-linejoin="round" fill="none" stroke="#ea4335" stroke-opacity=".2" d="M0-3C.795609-3 1.55874-2.683901 2.12132-2.12132 2.683901-1.55874 3-.795609 3 0 3 .795609 2.683901 1.55874 2.12132 2.12132 1.55874 2.683901 .795609 3 0 3-.795609 3-1.55874 2.683901-2.12132 2.12132-2.683901 1.55874-3 .795609-3 0-3-.795609-2.683901-1.55874-2.12132-2.12132-1.55874-2.683901-.795609-3 0-3Z"/>
</g>
</g>
</g>
<path transform="matrix(1,0,0,-1,0,274.4703)" d="M73.61733 46.1375V42.6375"/>
<path transform="matrix(1,0,0,-1,0,274.4703)" stroke-width=".8" stroke-linecap="butt" stroke-linejoin="round" fill="none" stroke="#000000" d="M73.61733 46.1375V42.6375"/>
<text xml:space="preserve" transform="matrix(1 0 -0 1 61.46889 245.59844)" font-size="14" font-family="Flama"><tspan y="0" x="0 7.5320007 15.624001">50K</tspan></text>
<path transform="matrix(1,0,0,-1,0,274.4703)" d="M112.17788 46.1375V42.6375"/>
<path transform="matrix(1,0,0,-1,0,274.4703)" stroke-width=".8" stroke-linecap="butt" stroke-linejoin="round" fill="none" stroke="#000000" d="M112.17788 46.1375V42.6375"/>
<path transform="matrix(1,0,0,-1,0,274.4703)" d="M134.73436 46.1375V42.6375"/>
<path transform="matrix(1,0,0,-1,0,274.4703)" stroke-width=".8" stroke-linecap="butt" stroke-linejoin="round" fill="none" stroke="#000000" d="M134.73436 46.1375V42.6375"/>
<path transform="matrix(1,0,0,-1,0,274.4703)" d="M150.73844 46.1375V42.6375"/>
<path transform="matrix(1,0,0,-1,0,274.4703)" stroke-width=".8" stroke-linecap="butt" stroke-linejoin="round" fill="none" stroke="#000000" d="M150.73844 46.1375V42.6375"/>
<path transform="matrix(1,0,0,-1,0,274.4703)" d="M189.29898 46.1375V42.6375"/>
<path transform="matrix(1,0,0,-1,0,274.4703)" stroke-width=".8" stroke-linecap="butt" stroke-linejoin="round" fill="none" stroke="#000000" d="M189.29898 46.1375V42.6375"/>
<text xml:space="preserve" transform="matrix(1 0 -0 1 172.86148 245.59844)" font-size="14" font-family="Flama"><tspan y="0" x="0 8.008 16.1 24.192002">400K</tspan></text>
<path transform="matrix(1,0,0,-1,0,274.4703)" d="M240.27327 46.1375V42.6375"/>
<path transform="matrix(1,0,0,-1,0,274.4703)" stroke-width=".8" stroke-linecap="butt" stroke-linejoin="round" fill="none" stroke="#000000" d="M240.27327 46.1375V42.6375"/>
<text xml:space="preserve" transform="matrix(1 0 -0 1 231.28108 245.59844)" font-size="14" font-family="Flama"><tspan y="0" x="0 6.9160006">1M</tspan></text>
<path transform="matrix(1,0,0,-1,0,274.4703)" d="M278.8338 46.1375V42.6375"/>
<path transform="matrix(1,0,0,-1,0,274.4703)" stroke-width=".8" stroke-linecap="butt" stroke-linejoin="round" fill="none" stroke="#000000" d="M278.8338 46.1375V42.6375"/>
<text xml:space="preserve" transform="matrix(1 0 -0 1 269.6541 245.59844)" font-size="14" font-family="Flama"><tspan y="0" x="0 7.2940008">2M</tspan></text>
<path transform="matrix(1,0,0,-1,0,274.4703)" d="M317.39439 46.1375V42.6375"/>
<path transform="matrix(1,0,0,-1,0,274.4703)" stroke-width=".8" stroke-linecap="butt" stroke-linejoin="round" fill="none" stroke="#000000" d="M317.39439 46.1375V42.6375"/>
<text xml:space="preserve" transform="matrix(1 0 -0 1 307.85533 245.59844)" font-size="14" font-family="Flama"><tspan y="0" x="0 8.008">4M</tspan></text>
<path transform="matrix(1,0,0,-1,0,274.4703)" d="M348.52644 46.1375V42.6375"/>
<path transform="matrix(1,0,0,-1,0,274.4703)" stroke-width=".8" stroke-linecap="butt" stroke-linejoin="round" fill="none" stroke="#000000" d="M348.52644 46.1375V42.6375"/>
<text xml:space="preserve" transform="matrix(1 0 -0 1 339.378 245.59844)" font-size="14" font-family="Flama"><tspan y="0" x="0 7.2380006">7M</tspan></text>
<path transform="matrix(1,0,0,-1,0,274.4703)" d="M61.203607 46.1375V44.1375"/>
<path transform="matrix(1,0,0,-1,0,274.4703)" stroke-width=".6" stroke-linecap="butt" stroke-linejoin="round" fill="none" stroke="#000000" d="M61.203607 46.1375V44.1375"/>
<path transform="matrix(1,0,0,-1,0,274.4703)" d="M83.76008 46.1375V44.1375"/>
<path transform="matrix(1,0,0,-1,0,274.4703)" stroke-width=".6" stroke-linecap="butt" stroke-linejoin="round" fill="none" stroke="#000000" d="M83.76008 46.1375V44.1375"/>
<path transform="matrix(1,0,0,-1,0,274.4703)" d="M92.335659 46.1375V44.1375"/>
<path transform="matrix(1,0,0,-1,0,274.4703)" stroke-width=".6" stroke-linecap="butt" stroke-linejoin="round" fill="none" stroke="#000000" d="M92.335659 46.1375V44.1375"/>
<path transform="matrix(1,0,0,-1,0,274.4703)" d="M99.76416 46.1375V44.1375"/>
<path transform="matrix(1,0,0,-1,0,274.4703)" stroke-width=".6" stroke-linecap="butt" stroke-linejoin="round" fill="none" stroke="#000000" d="M99.76416 46.1375V44.1375"/>
<path transform="matrix(1,0,0,-1,0,274.4703)" d="M106.31656 46.1375V44.1375"/>
<path transform="matrix(1,0,0,-1,0,274.4703)" stroke-width=".6" stroke-linecap="butt" stroke-linejoin="round" fill="none" stroke="#000000" d="M106.31656 46.1375V44.1375"/>
<path transform="matrix(1,0,0,-1,0,274.4703)" d="M173.2949 46.1375V44.1375"/>
<path transform="matrix(1,0,0,-1,0,274.4703)" stroke-width=".6" stroke-linecap="butt" stroke-linejoin="round" fill="none" stroke="#000000" d="M173.2949 46.1375V44.1375"/>
<path transform="matrix(1,0,0,-1,0,274.4703)" d="M201.7127 46.1375V44.1375"/>
<path transform="matrix(1,0,0,-1,0,274.4703)" stroke-width=".6" stroke-linecap="butt" stroke-linejoin="round" fill="none" stroke="#000000" d="M201.7127 46.1375V44.1375"/>
<path transform="matrix(1,0,0,-1,0,274.4703)" d="M211.85547 46.1375V44.1375"/>
<path transform="matrix(1,0,0,-1,0,274.4703)" stroke-width=".6" stroke-linecap="butt" stroke-linejoin="round" fill="none" stroke="#000000" d="M211.85547 46.1375V44.1375"/>
<path transform="matrix(1,0,0,-1,0,274.4703)" d="M220.43105 46.1375V44.1375"/>
<path transform="matrix(1,0,0,-1,0,274.4703)" stroke-width=".6" stroke-linecap="butt" stroke-linejoin="round" fill="none" stroke="#000000" d="M220.43105 46.1375V44.1375"/>
<path transform="matrix(1,0,0,-1,0,274.4703)" d="M227.85955 46.1375V44.1375"/>
<path transform="matrix(1,0,0,-1,0,274.4703)" stroke-width=".6" stroke-linecap="butt" stroke-linejoin="round" fill="none" stroke="#000000" d="M227.85955 46.1375V44.1375"/>
<path transform="matrix(1,0,0,-1,0,274.4703)" d="M234.41194 46.1375V44.1375"/>
<path transform="matrix(1,0,0,-1,0,274.4703)" stroke-width=".6" stroke-linecap="butt" stroke-linejoin="round" fill="none" stroke="#000000" d="M234.41194 46.1375V44.1375"/>
<path transform="matrix(1,0,0,-1,0,274.4703)" d="M301.3903 46.1375V44.1375"/>
<path transform="matrix(1,0,0,-1,0,274.4703)" stroke-width=".6" stroke-linecap="butt" stroke-linejoin="round" fill="none" stroke="#000000" d="M301.3903 46.1375V44.1375"/>
<path transform="matrix(1,0,0,-1,0,274.4703)" d="M329.8081 46.1375V44.1375"/>
<path transform="matrix(1,0,0,-1,0,274.4703)" stroke-width=".6" stroke-linecap="butt" stroke-linejoin="round" fill="none" stroke="#000000" d="M329.8081 46.1375V44.1375"/>
<path transform="matrix(1,0,0,-1,0,274.4703)" d="M339.95085 46.1375V44.1375"/>
<path transform="matrix(1,0,0,-1,0,274.4703)" stroke-width=".6" stroke-linecap="butt" stroke-linejoin="round" fill="none" stroke="#000000" d="M339.95085 46.1375V44.1375"/>
<path transform="matrix(1,0,0,-1,0,274.4703)" d="M355.95494 46.1375V44.1375"/>
<path transform="matrix(1,0,0,-1,0,274.4703)" stroke-width=".6" stroke-linecap="butt" stroke-linejoin="round" fill="none" stroke="#000000" d="M355.95494 46.1375V44.1375"/>
<text fill="#202124" xml:space="preserve" transform="matrix(1 0 -0 1 148.54062 264.11405)" font-size="16" font-family="Flama"><tspan y="0" x="0 9.536 16.048 24.704 28.768002 37.904005 41.968004 51.104005 60.144006 64.144008 68.576007 73.888 82.56 89.072 97.728 103.03999 107.104 115.904">Training Iteration</tspan></text>
<g clip-path="url(#clip_11)">
<path transform="matrix(1,0,0,-1,0,274.4703)" stroke-width=".5" stroke-linecap="butt" stroke-dasharray="1.85,.8" stroke-linejoin="round" fill="none" stroke="#929292" d="M59.871877 262.1375H362.27189"/>
</g>
<path transform="matrix(1,0,0,-1,0,274.4703)" d="M59.871877 262.1375H56.371877"/>
<path transform="matrix(1,0,0,-1,0,274.4703)" stroke-width=".8" stroke-linecap="butt" stroke-linejoin="round" fill="none" stroke="#000000" d="M59.871877 262.1375H56.371877"/>
<text xml:space="preserve" transform="matrix(1 0 -0 1 25.98125 17.465607)" font-size="14" font-family="Flama"><tspan y="0" x="0 7.784001 15.876001 18.802002">90.0</tspan></text>
<g clip-path="url(#clip_12)">
<path transform="matrix(1,0,0,-1,0,274.4703)" stroke-width=".5" stroke-linecap="butt" stroke-dasharray="1.85,.8" stroke-linejoin="round" fill="none" stroke="#929292" d="M59.871877 218.21169H362.27189"/>
</g>
<path transform="matrix(1,0,0,-1,0,274.4703)" d="M59.871877 218.21169H56.371877"/>
<path transform="matrix(1,0,0,-1,0,274.4703)" stroke-width=".8" stroke-linecap="butt" stroke-linejoin="round" fill="none" stroke="#000000" d="M59.871877 218.21169H56.371877"/>
<text xml:space="preserve" transform="matrix(1 0 -0 1 26.23125 61.391435)" font-size="14" font-family="Flama"><tspan y="0" x="0 7.5320007 15.624001 18.550002">50.0</tspan></text>
<g clip-path="url(#clip_13)">
<path transform="matrix(1,0,0,-1,0,274.4703)" stroke-width=".5" stroke-linecap="butt" stroke-dasharray="1.85,.8" stroke-linejoin="round" fill="none" stroke="#929292" d="M59.871877 166.4122H362.27189"/>
</g>
<path transform="matrix(1,0,0,-1,0,274.4703)" d="M59.871877 166.4122H56.371877"/>
<path transform="matrix(1,0,0,-1,0,274.4703)" stroke-width=".8" stroke-linecap="butt" stroke-linejoin="round" fill="none" stroke="#000000" d="M59.871877 166.4122H56.371877"/>
<text xml:space="preserve" transform="matrix(1 0 -0 1 27.028126 113.19092)" font-size="14" font-family="Flama"><tspan y="0" x="0 7.2940008 14.826001 17.752">25.0</tspan></text>
<g clip-path="url(#clip_14)">
<path transform="matrix(1,0,0,-1,0,274.4703)" stroke-width=".5" stroke-linecap="butt" stroke-dasharray="1.85,.8" stroke-linejoin="round" fill="none" stroke="#929292" d="M59.871877 97.937H362.27189"/>
</g>
<path transform="matrix(1,0,0,-1,0,274.4703)" d="M59.871877 97.937H56.371877"/>
<path transform="matrix(1,0,0,-1,0,274.4703)" stroke-width=".8" stroke-linecap="butt" stroke-linejoin="round" fill="none" stroke="#000000" d="M59.871877 97.937H56.371877"/>
<text xml:space="preserve" transform="matrix(1 0 -0 1 26.840626 181.66613)" font-size="14" font-family="Flama"><tspan y="0" x="0 6.9160006 15.008 17.934">10.0</tspan></text>
<g clip-path="url(#clip_15)">
<path transform="matrix(1,0,0,-1,0,274.4703)" stroke-width=".5" stroke-linecap="butt" stroke-dasharray="1.85,.8" stroke-linejoin="round" fill="none" stroke="#929292" d="M59.871877 80.32126H362.27189"/>
</g>
<path transform="matrix(1,0,0,-1,0,274.4703)" d="M59.871877 80.32126H56.371877"/>
<path transform="matrix(1,0,0,-1,0,274.4703)" stroke-width=".8" stroke-linecap="butt" stroke-linejoin="round" fill="none" stroke="#000000" d="M59.871877 80.32126H56.371877"/>
<text xml:space="preserve" transform="matrix(1 0 -0 1 34.934377 199.28186)" font-size="14" font-family="Flama"><tspan y="0" x="0 7.2380006 10.1640009">7.9</tspan></text>
<g clip-path="url(#clip_16)">
<path transform="matrix(1,0,0,-1,0,274.4703)" stroke-width=".5" stroke-linecap="butt" stroke-dasharray="1.85,.8" stroke-linejoin="round" fill="none" stroke="#929292" d="M59.871877 64.58557H362.27189"/>
</g>
<path transform="matrix(1,0,0,-1,0,274.4703)" d="M59.871877 64.58557H56.371877"/>
<path transform="matrix(1,0,0,-1,0,274.4703)" stroke-width=".8" stroke-linecap="butt" stroke-linejoin="round" fill="none" stroke="#000000" d="M59.871877 64.58557H56.371877"/>
<text xml:space="preserve" transform="matrix(1 0 -0 1 34.215627 215.01755)" font-size="14" font-family="Flama"><tspan y="0" x="0 7.7139999 10.639999">6.4</tspan></text>
<g clip-path="url(#clip_17)">
<path transform="matrix(1,0,0,-1,0,274.4703)" stroke-width=".5" stroke-linecap="butt" stroke-dasharray="1.85,.8" stroke-linejoin="round" fill="none" stroke="#929292" d="M59.871877 46.1375H362.27189"/>
</g>
<path transform="matrix(1,0,0,-1,0,274.4703)" d="M59.871877 46.1375H56.371877"/>
<path transform="matrix(1,0,0,-1,0,274.4703)" stroke-width=".8" stroke-linecap="butt" stroke-linejoin="round" fill="none" stroke="#000000" d="M59.871877 46.1375H56.371877"/>
<text xml:space="preserve" transform="matrix(1 0 -0 1 45.340627 233.46562)" font-size="14" font-family="Flama"><tspan y="0" x="0">5</tspan></text>
<path transform="matrix(1,0,0,-1,0,274.4703)" d="M59.871877 59.76255H57.871877"/>
<path transform="matrix(1,0,0,-1,0,274.4703)" stroke-width=".6" stroke-linecap="butt" stroke-linejoin="round" fill="none" stroke="#000000" d="M59.871877 59.76255H57.871877"/>
<path transform="matrix(1,0,0,-1,0,274.4703)" d="M59.871877 71.282367H57.871877"/>
<path transform="matrix(1,0,0,-1,0,274.4703)" stroke-width=".6" stroke-linecap="butt" stroke-linejoin="round" fill="none" stroke="#000000" d="M59.871877 71.282367H57.871877"/>
<path transform="matrix(1,0,0,-1,0,274.4703)" d="M59.871877 81.261287H57.871877"/>
<path transform="matrix(1,0,0,-1,0,274.4703)" stroke-width=".6" stroke-linecap="butt" stroke-linejoin="round" fill="none" stroke="#000000" d="M59.871877 81.261287H57.871877"/>
<path transform="matrix(1,0,0,-1,0,274.4703)" d="M59.871877 90.06331H57.871877"/>
<path transform="matrix(1,0,0,-1,0,274.4703)" stroke-width=".6" stroke-linecap="butt" stroke-linejoin="round" fill="none" stroke="#000000" d="M59.871877 90.06331H57.871877"/>
<path transform="matrix(1,0,0,-1,0,274.4703)" d="M59.871877 149.73648H57.871877"/>
<path transform="matrix(1,0,0,-1,0,274.4703)" stroke-width=".6" stroke-linecap="butt" stroke-linejoin="round" fill="none" stroke="#000000" d="M59.871877 149.73648H57.871877"/>
<path transform="matrix(1,0,0,-1,0,274.4703)" d="M59.871877 180.03725H57.871877"/>
<path transform="matrix(1,0,0,-1,0,274.4703)" stroke-width=".6" stroke-linecap="butt" stroke-linejoin="round" fill="none" stroke="#000000" d="M59.871877 180.03725H57.871877"/>
<path transform="matrix(1,0,0,-1,0,274.4703)" d="M59.871877 201.53598H57.871877"/>
<path transform="matrix(1,0,0,-1,0,274.4703)" stroke-width=".6" stroke-linecap="butt" stroke-linejoin="round" fill="none" stroke="#000000" d="M59.871877 201.53598H57.871877"/>
<path transform="matrix(1,0,0,-1,0,274.4703)" d="M59.871877 231.83675H57.871877"/>
<path transform="matrix(1,0,0,-1,0,274.4703)" stroke-width=".6" stroke-linecap="butt" stroke-linejoin="round" fill="none" stroke="#000000" d="M59.871877 231.83675H57.871877"/>
<path transform="matrix(1,0,0,-1,0,274.4703)" d="M59.871877 243.35655H57.871877"/>
<path transform="matrix(1,0,0,-1,0,274.4703)" stroke-width=".6" stroke-linecap="butt" stroke-linejoin="round" fill="none" stroke="#000000" d="M59.871877 243.35655H57.871877"/>
<path transform="matrix(1,0,0,-1,0,274.4703)" d="M59.871877 253.33547H57.871877"/>
<path transform="matrix(1,0,0,-1,0,274.4703)" stroke-width=".6" stroke-linecap="butt" stroke-linejoin="round" fill="none" stroke="#000000" d="M59.871877 253.33547H57.871877"/>
<text xml:space="preserve" transform="matrix(0 -1 1 0 18.8875 150.44219)" font-size="16" font-family="Flama"><tspan y="0" x="0 9.328 13.76 24.720002 30.528002 39.68 49.216">FID-50K</tspan></text>
<g clip-path="url(#clip_18)">
<path transform="matrix(1,0,0,-1,0,274.4703)" stroke-width="3" stroke-linecap="square" stroke-linejoin="round" fill="none" stroke="#4285f4" stroke-opacity=".2" d="M73.61733 249.85544 112.17788 214.61412 150.73844 180.28594 189.29898 147.84447"/>
</g>
<g clip-path="url(#clip_19)">
<path transform="matrix(1,0,0,-1,0,274.4703)" stroke-width="3" stroke-linecap="square" stroke-linejoin="round" fill="none" stroke="#4285f4" d="M73.61733 252.3008 112.17788 207.11415 134.73436 184.86026 150.73844 171.88626 189.29898 142.68857"/>
</g>
<g clip-path="url(#clip_20)">
<path transform="matrix(1,0,0,-1,0,274.4703)" stroke-width="3" stroke-linecap="square" stroke-linejoin="round" fill="none" stroke="#ea4335" stroke-opacity=".2" d="M73.61733 226.09136 112.17788 176.41353 150.73844 139.20035 189.29898 113.40734 231.23215 94.5743"/>
</g>
<g clip-path="url(#clip_21)">
<path transform="matrix(1,0,0,-1,0,274.4703)" stroke-width="3" stroke-linecap="square" stroke-linejoin="round" fill="none" stroke="#ea4335" d="M73.61733 221.57259 112.17788 147.46024 134.73436 120.91559 150.73844 105.73591 189.29898 80.32126 240.27327 64.58557 278.8338 62.21296 317.39439 58.37977"/>
</g>
<path transform="matrix(1,0,0,-1,0,274.4703)" stroke-width=".8" stroke-linecap="square" stroke-miterlimit="10" stroke-linejoin="miter" fill="none" stroke="#000000" d="M59.871877 46.1375V262.1375"/>
<path transform="matrix(1,0,0,-1,0,274.4703)" stroke-width=".8" stroke-linecap="square" stroke-miterlimit="10" stroke-linejoin="miter" fill="none" stroke="#000000" d="M362.27189 46.1375V262.1375"/>
<path transform="matrix(1,0,0,-1,0,274.4703)" stroke-width=".8" stroke-linecap="square" stroke-miterlimit="10" stroke-linejoin="miter" fill="none" stroke="#000000" d="M59.871877 46.1375H362.27189"/>
<path transform="matrix(1,0,0,-1,0,274.4703)" stroke-width=".8" stroke-linecap="square" stroke-miterlimit="10" stroke-linejoin="miter" fill="none" stroke="#000000" d="M59.871877 262.1375H362.27189"/>
<path transform="matrix(1,0,0,-1,0,274.4703)" stroke-width="2" stroke-linecap="round" stroke-linejoin="round" fill="none" stroke="#202124" d="M193.53223 80.32126C244.30686 80.32126 295.08146 80.32126 345.85609 80.32126"/>
<path transform="matrix(1,0,0,-1,0,274.4703)" d="M201.53223 76.32126 193.53223 80.32126 201.53223 84.32126Z" fill="#202124"/>
<path transform="matrix(1,0,0,-1,0,274.4703)" stroke-width="2" stroke-linecap="round" stroke-linejoin="round" fill="none" stroke="#202124" d="M201.53223 76.32126 193.53223 80.32126 201.53223 84.32126Z"/>
<path transform="matrix(1,0,0,-1,0,274.4703)" d="M337.85609 84.32126 345.85609 80.32126 337.85609 76.32126Z" fill="#202124"/>
<path transform="matrix(1,0,0,-1,0,274.4703)" stroke-width="2" stroke-linecap="round" stroke-linejoin="round" fill="none" stroke="#202124" d="M337.85609 84.32126 345.85609 80.32126 337.85609 76.32126Z"/>
<text fill="#202124" xml:space="preserve" transform="matrix(1 0 -0 1 228.99822 185.97537)" font-size="14" font-family="Flama"><tspan y="0" x="0 7.2240006 15.092001 18.732003 26.740002 34.062 37.562 41.986 49.56 56.868 61.516 69.104">17.5x faster</tspan></text>
<g clip-path="url(#clip_22)">
<g clip-path="url(#clip_23)">
<path transform="matrix(1,0,0,-1,73.61733,22.16951)" d="M0-5C1.326016-5 2.597899-4.473168 3.535534-3.535534 4.473168-2.597899 5-1.326016 5 0 5 1.326016 4.473168 2.597899 3.535534 3.535534 2.597899 4.473168 1.326016 5 0 5-1.326016 5-2.597899 4.473168-3.535534 3.535534-4.473168 2.597899-5 1.326016-5 0-5-1.326016-4.473168-2.597899-3.535534-3.535534-2.597899-4.473168-1.326016-5 0-5Z" fill="#4285f4"/>
<path transform="matrix(1,0,0,-1,73.61733,22.16951)" stroke-width="1" stroke-linecap="butt" stroke-linejoin="round" fill="none" stroke="#4285f4" d="M0-5C1.326016-5 2.597899-4.473168 3.535534-3.535534 4.473168-2.597899 5-1.326016 5 0 5 1.326016 4.473168 2.597899 3.535534 3.535534 2.597899 4.473168 1.326016 5 0 5-1.326016 5-2.597899 4.473168-3.535534 3.535534-4.473168 2.597899-5 1.326016-5 0-5-1.326016-4.473168-2.597899-3.535534-3.535534-2.597899-4.473168-1.326016-5 0-5Z"/>
</g>
<g clip-path="url(#clip_24)">
<path transform="matrix(1,0,0,-1,112.17789,67.35615)" d="M0-5C1.326016-5 2.597899-4.473168 3.535534-3.535534 4.473168-2.597899 5-1.326016 5 0 5 1.326016 4.473168 2.597899 3.535534 3.535534 2.597899 4.473168 1.326016 5 0 5-1.326016 5-2.597899 4.473168-3.535534 3.535534-4.473168 2.597899-5 1.326016-5 0-5-1.326016-4.473168-2.597899-3.535534-3.535534-2.597899-4.473168-1.326016-5 0-5Z" fill="#4285f4"/>
<path transform="matrix(1,0,0,-1,112.17789,67.35615)" stroke-width="1" stroke-linecap="butt" stroke-linejoin="round" fill="none" stroke="#4285f4" d="M0-5C1.326016-5 2.597899-4.473168 3.535534-3.535534 4.473168-2.597899 5-1.326016 5 0 5 1.326016 4.473168 2.597899 3.535534 3.535534 2.597899 4.473168 1.326016 5 0 5-1.326016 5-2.597899 4.473168-3.535534 3.535534-4.473168 2.597899-5 1.326016-5 0-5-1.326016-4.473168-2.597899-3.535534-3.535534-2.597899-4.473168-1.326016-5 0-5Z"/>
</g>
<g clip-path="url(#clip_25)">
<path transform="matrix(1,0,0,-1,134.73436,89.61004)" d="M0-5C1.326016-5 2.597899-4.473168 3.535534-3.535534 4.473168-2.597899 5-1.326016 5 0 5 1.326016 4.473168 2.597899 3.535534 3.535534 2.597899 4.473168 1.326016 5 0 5-1.326016 5-2.597899 4.473168-3.535534 3.535534-4.473168 2.597899-5 1.326016-5 0-5-1.326016-4.473168-2.597899-3.535534-3.535534-2.597899-4.473168-1.326016-5 0-5Z" fill="#4285f4"/>
<path transform="matrix(1,0,0,-1,134.73436,89.61004)" stroke-width="1" stroke-linecap="butt" stroke-linejoin="round" fill="none" stroke="#4285f4" d="M0-5C1.326016-5 2.597899-4.473168 3.535534-3.535534 4.473168-2.597899 5-1.326016 5 0 5 1.326016 4.473168 2.597899 3.535534 3.535534 2.597899 4.473168 1.326016 5 0 5-1.326016 5-2.597899 4.473168-3.535534 3.535534-4.473168 2.597899-5 1.326016-5 0-5-1.326016-4.473168-2.597899-3.535534-3.535534-2.597899-4.473168-1.326016-5 0-5Z"/>
</g>
<g clip-path="url(#clip_26)">
<path transform="matrix(1,0,0,-1,150.73844,102.58404)" d="M0-5C1.326016-5 2.597899-4.473168 3.535534-3.535534 4.473168-2.597899 5-1.326016 5 0 5 1.326016 4.473168 2.597899 3.535534 3.535534 2.597899 4.473168 1.326016 5 0 5-1.326016 5-2.597899 4.473168-3.535534 3.535534-4.473168 2.597899-5 1.326016-5 0-5-1.326016-4.473168-2.597899-3.535534-3.535534-2.597899-4.473168-1.326016-5 0-5Z" fill="#4285f4"/>
<path transform="matrix(1,0,0,-1,150.73844,102.58404)" stroke-width="1" stroke-linecap="butt" stroke-linejoin="round" fill="none" stroke="#4285f4" d="M0-5C1.326016-5 2.597899-4.473168 3.535534-3.535534 4.473168-2.597899 5-1.326016 5 0 5 1.326016 4.473168 2.597899 3.535534 3.535534 2.597899 4.473168 1.326016 5 0 5-1.326016 5-2.597899 4.473168-3.535534 3.535534-4.473168 2.597899-5 1.326016-5 0-5-1.326016-4.473168-2.597899-3.535534-3.535534-2.597899-4.473168-1.326016-5 0-5Z"/>
</g>
<g clip-path="url(#clip_27)">
<path transform="matrix(1,0,0,-1,189.29898,131.78174)" d="M0-5C1.326016-5 2.597899-4.473168 3.535534-3.535534 4.473168-2.597899 5-1.326016 5 0 5 1.326016 4.473168 2.597899 3.535534 3.535534 2.597899 4.473168 1.326016 5 0 5-1.326016 5-2.597899 4.473168-3.535534 3.535534-4.473168 2.597899-5 1.326016-5 0-5-1.326016-4.473168-2.597899-3.535534-3.535534-2.597899-4.473168-1.326016-5 0-5Z" fill="#4285f4"/>
<path transform="matrix(1,0,0,-1,189.29898,131.78174)" stroke-width="1" stroke-linecap="butt" stroke-linejoin="round" fill="none" stroke="#4285f4" d="M0-5C1.326016-5 2.597899-4.473168 3.535534-3.535534 4.473168-2.597899 5-1.326016 5 0 5 1.326016 4.473168 2.597899 3.535534 3.535534 2.597899 4.473168 1.326016 5 0 5-1.326016 5-2.597899 4.473168-3.535534 3.535534-4.473168 2.597899-5 1.326016-5 0-5-1.326016-4.473168-2.597899-3.535534-3.535534-2.597899-4.473168-1.326016-5 0-5Z"/>
</g>
</g>
<g clip-path="url(#clip_28)">
<g clip-path="url(#clip_29)">
<path transform="matrix(1,0,0,-1,73.61733,52.89772)" d="M0-5C1.326016-5 2.597899-4.473168 3.535534-3.535534 4.473168-2.597899 5-1.326016 5 0 5 1.326016 4.473168 2.597899 3.535534 3.535534 2.597899 4.473168 1.326016 5 0 5-1.326016 5-2.597899 4.473168-3.535534 3.535534-4.473168 2.597899-5 1.326016-5 0-5-1.326016-4.473168-2.597899-3.535534-3.535534-2.597899-4.473168-1.326016-5 0-5Z" fill="#ea4335"/>
<path transform="matrix(1,0,0,-1,73.61733,52.89772)" stroke-width="1" stroke-linecap="butt" stroke-linejoin="round" fill="none" stroke="#ea4335" d="M0-5C1.326016-5 2.597899-4.473168 3.535534-3.535534 4.473168-2.597899 5-1.326016 5 0 5 1.326016 4.473168 2.597899 3.535534 3.535534 2.597899 4.473168 1.326016 5 0 5-1.326016 5-2.597899 4.473168-3.535534 3.535534-4.473168 2.597899-5 1.326016-5 0-5-1.326016-4.473168-2.597899-3.535534-3.535534-2.597899-4.473168-1.326016-5 0-5Z"/>
</g>
<g clip-path="url(#clip_30)">
<path transform="matrix(1,0,0,-1,112.17789,127.01007)" d="M0-5C1.326016-5 2.597899-4.473168 3.535534-3.535534 4.473168-2.597899 5-1.326016 5 0 5 1.326016 4.473168 2.597899 3.535534 3.535534 2.597899 4.473168 1.326016 5 0 5-1.326016 5-2.597899 4.473168-3.535534 3.535534-4.473168 2.597899-5 1.326016-5 0-5-1.326016-4.473168-2.597899-3.535534-3.535534-2.597899-4.473168-1.326016-5 0-5Z" fill="#ea4335"/>
<path transform="matrix(1,0,0,-1,112.17789,127.01007)" stroke-width="1" stroke-linecap="butt" stroke-linejoin="round" fill="none" stroke="#ea4335" d="M0-5C1.326016-5 2.597899-4.473168 3.535534-3.535534 4.473168-2.597899 5-1.326016 5 0 5 1.326016 4.473168 2.597899 3.535534 3.535534 2.597899 4.473168 1.326016 5 0 5-1.326016 5-2.597899 4.473168-3.535534 3.535534-4.473168 2.597899-5 1.326016-5 0-5-1.326016-4.473168-2.597899-3.535534-3.535534-2.597899-4.473168-1.326016-5 0-5Z"/>
</g>
<g clip-path="url(#clip_31)">
<path transform="matrix(1,0,0,-1,134.73436,153.55472)" d="M0-5C1.326016-5 2.597899-4.473168 3.535534-3.535534 4.473168-2.597899 5-1.326016 5 0 5 1.326016 4.473168 2.597899 3.535534 3.535534 2.597899 4.473168 1.326016 5 0 5-1.326016 5-2.597899 4.473168-3.535534 3.535534-4.473168 2.597899-5 1.326016-5 0-5-1.326016-4.473168-2.597899-3.535534-3.535534-2.597899-4.473168-1.326016-5 0-5Z" fill="#ea4335"/>
<path transform="matrix(1,0,0,-1,134.73436,153.55472)" stroke-width="1" stroke-linecap="butt" stroke-linejoin="round" fill="none" stroke="#ea4335" d="M0-5C1.326016-5 2.597899-4.473168 3.535534-3.535534 4.473168-2.597899 5-1.326016 5 0 5 1.326016 4.473168 2.597899 3.535534 3.535534 2.597899 4.473168 1.326016 5 0 5-1.326016 5-2.597899 4.473168-3.535534 3.535534-4.473168 2.597899-5 1.326016-5 0-5-1.326016-4.473168-2.597899-3.535534-3.535534-2.597899-4.473168-1.326016-5 0-5Z"/>
</g>
<g clip-path="url(#clip_32)">
<path transform="matrix(1,0,0,-1,150.73844,168.7344)" d="M0-5C1.326016-5 2.597899-4.473168 3.535534-3.535534 4.473168-2.597899 5-1.326016 5 0 5 1.326016 4.473168 2.597899 3.535534 3.535534 2.597899 4.473168 1.326016 5 0 5-1.326016 5-2.597899 4.473168-3.535534 3.535534-4.473168 2.597899-5 1.326016-5 0-5-1.326016-4.473168-2.597899-3.535534-3.535534-2.597899-4.473168-1.326016-5 0-5Z" fill="#ea4335"/>
<path transform="matrix(1,0,0,-1,150.73844,168.7344)" stroke-width="1" stroke-linecap="butt" stroke-linejoin="round" fill="none" stroke="#ea4335" d="M0-5C1.326016-5 2.597899-4.473168 3.535534-3.535534 4.473168-2.597899 5-1.326016 5 0 5 1.326016 4.473168 2.597899 3.535534 3.535534 2.597899 4.473168 1.326016 5 0 5-1.326016 5-2.597899 4.473168-3.535534 3.535534-4.473168 2.597899-5 1.326016-5 0-5-1.326016-4.473168-2.597899-3.535534-3.535534-2.597899-4.473168-1.326016-5 0-5Z"/>
</g>
<g clip-path="url(#clip_33)">
<path transform="matrix(1,0,0,-1,189.29898,194.14905)" d="M0-5C1.326016-5 2.597899-4.473168 3.535534-3.535534 4.473168-2.597899 5-1.326016 5 0 5 1.326016 4.473168 2.597899 3.535534 3.535534 2.597899 4.473168 1.326016 5 0 5-1.326016 5-2.597899 4.473168-3.535534 3.535534-4.473168 2.597899-5 1.326016-5 0-5-1.326016-4.473168-2.597899-3.535534-3.535534-2.597899-4.473168-1.326016-5 0-5Z" fill="#ea4335"/>
<path transform="matrix(1,0,0,-1,189.29898,194.14905)" stroke-width="1" stroke-linecap="butt" stroke-linejoin="round" fill="none" stroke="#ea4335" d="M0-5C1.326016-5 2.597899-4.473168 3.535534-3.535534 4.473168-2.597899 5-1.326016 5 0 5 1.326016 4.473168 2.597899 3.535534 3.535534 2.597899 4.473168 1.326016 5 0 5-1.326016 5-2.597899 4.473168-3.535534 3.535534-4.473168 2.597899-5 1.326016-5 0-5-1.326016-4.473168-2.597899-3.535534-3.535534-2.597899-4.473168-1.326016-5 0-5Z"/>
</g>
<g clip-path="url(#clip_34)">
<path transform="matrix(1,0,0,-1,240.27326,209.88474)" d="M0-5C1.326016-5 2.597899-4.473168 3.535534-3.535534 4.473168-2.597899 5-1.326016 5 0 5 1.326016 4.473168 2.597899 3.535534 3.535534 2.597899 4.473168 1.326016 5 0 5-1.326016 5-2.597899 4.473168-3.535534 3.535534-4.473168 2.597899-5 1.326016-5 0-5-1.326016-4.473168-2.597899-3.535534-3.535534-2.597899-4.473168-1.326016-5 0-5Z" fill="#ea4335"/>
<path transform="matrix(1,0,0,-1,240.27326,209.88474)" stroke-width="1" stroke-linecap="butt" stroke-linejoin="round" fill="none" stroke="#ea4335" d="M0-5C1.326016-5 2.597899-4.473168 3.535534-3.535534 4.473168-2.597899 5-1.326016 5 0 5 1.326016 4.473168 2.597899 3.535534 3.535534 2.597899 4.473168 1.326016 5 0 5-1.326016 5-2.597899 4.473168-3.535534 3.535534-4.473168 2.597899-5 1.326016-5 0-5-1.326016-4.473168-2.597899-3.535534-3.535534-2.597899-4.473168-1.326016-5 0-5Z"/>
</g>
<g clip-path="url(#clip_35)">
<path transform="matrix(1,0,0,-1,278.8338,212.25734)" d="M0-5C1.326016-5 2.597899-4.473168 3.535534-3.535534 4.473168-2.597899 5-1.326016 5 0 5 1.326016 4.473168 2.597899 3.535534 3.535534 2.597899 4.473168 1.326016 5 0 5-1.326016 5-2.597899 4.473168-3.535534 3.535534-4.473168 2.597899-5 1.326016-5 0-5-1.326016-4.473168-2.597899-3.535534-3.535534-2.597899-4.473168-1.326016-5 0-5Z" fill="#ea4335"/>
<path transform="matrix(1,0,0,-1,278.8338,212.25734)" stroke-width="1" stroke-linecap="butt" stroke-linejoin="round" fill="none" stroke="#ea4335" d="M0-5C1.326016-5 2.597899-4.473168 3.535534-3.535534 4.473168-2.597899 5-1.326016 5 0 5 1.326016 4.473168 2.597899 3.535534 3.535534 2.597899 4.473168 1.326016 5 0 5-1.326016 5-2.597899 4.473168-3.535534 3.535534-4.473168 2.597899-5 1.326016-5 0-5-1.326016-4.473168-2.597899-3.535534-3.535534-2.597899-4.473168-1.326016-5 0-5Z"/>
</g>
<g clip-path="url(#clip_36)">
<path transform="matrix(1,0,0,-1,317.39436,216.09053)" d="M0-5C1.326016-5 2.597899-4.473168 3.535534-3.535534 4.473168-2.597899 5-1.326016 5 0 5 1.326016 4.473168 2.597899 3.535534 3.535534 2.597899 4.473168 1.326016 5 0 5-1.326016 5-2.597899 4.473168-3.535534 3.535534-4.473168 2.597899-5 1.326016-5 0-5-1.326016-4.473168-2.597899-3.535534-3.535534-2.597899-4.473168-1.326016-5 0-5Z" fill="#ea4335"/>
<path transform="matrix(1,0,0,-1,317.39436,216.09053)" stroke-width="1" stroke-linecap="butt" stroke-linejoin="round" fill="none" stroke="#ea4335" d="M0-5C1.326016-5 2.597899-4.473168 3.535534-3.535534 4.473168-2.597899 5-1.326016 5 0 5 1.326016 4.473168 2.597899 3.535534 3.535534 2.597899 4.473168 1.326016 5 0 5-1.326016 5-2.597899 4.473168-3.535534 3.535534-4.473168 2.597899-5 1.326016-5 0-5-1.326016-4.473168-2.597899-3.535534-3.535534-2.597899-4.473168-1.326016-5 0-5Z"/>
</g>
</g>
<g clip-path="url(#clip_37)">
<path transform="matrix(1,0,0,-1,0,274.4703)" d="M348.52644 79.01242C349.85246 79.01242 351.12434 79.53925 352.06196 80.47689 352.9996 81.41452 353.52644 82.68641 353.52644 84.01242 353.52644 85.33844 352.9996 86.61032 352.06196 87.54796 351.12434 88.48559 349.85246 89.01242 348.52644 89.01242 347.2004 89.01242 345.92854 88.48559 344.99089 87.54796 344.05326 86.61032 343.52644 85.33844 343.52644 84.01242 343.52644 82.68641 344.05326 81.41452 344.99089 80.47689 345.92854 79.53925 347.2004 79.01242 348.52644 79.01242Z" fill="#4285f4"/>
<path transform="matrix(1,0,0,-1,0,274.4703)" stroke-width="1" stroke-linecap="butt" stroke-linejoin="round" fill="none" stroke="#4285f4" d="M348.52644 79.01242C349.85246 79.01242 351.12434 79.53925 352.06196 80.47689 352.9996 81.41452 353.52644 82.68641 353.52644 84.01242 353.52644 85.33844 352.9996 86.61032 352.06196 87.54796 351.12434 88.48559 349.85246 89.01242 348.52644 89.01242 347.2004 89.01242 345.92854 88.48559 344.99089 87.54796 344.05326 86.61032 343.52644 85.33844 343.52644 84.01242 343.52644 82.68641 344.05326 81.41452 344.99089 80.47689 345.92854 79.53925 347.2004 79.01242 348.52644 79.01242Z"/>
</g>
<g clip-path="url(#clip_38)">
<g>
<path transform="matrix(1,0,0,-1,0,274.4703)" d="M348.52644 89.88633C349.85246 89.88633 351.12434 90.41316 352.06196 91.3508 352.9996 92.28843 353.52644 93.56031 353.52644 94.88633 353.52644 96.21234 352.9996 97.48423 352.06196 98.42186 351.12434 99.3595 349.85246 99.88633 348.52644 99.88633 347.2004 99.88633 345.92854 99.3595 344.99089 98.42186 344.05326 97.48423 343.52644 96.21234 343.52644 94.88633 343.52644 93.56031 344.05326 92.28843 344.99089 91.3508 345.92854 90.41316 347.2004 89.88633 348.52644 89.88633Z" fill="#4285f4" fill-opacity=".2"/>
<path transform="matrix(1,0,0,-1,0,274.4703)" stroke-width="1" stroke-linecap="butt" stroke-linejoin="round" fill="none" stroke="#4285f4" stroke-opacity=".2" d="M348.52644 89.88633C349.85246 89.88633 351.12434 90.41316 352.06196 91.3508 352.9996 92.28843 353.52644 93.56031 353.52644 94.88633 353.52644 96.21234 352.9996 97.48423 352.06196 98.42186 351.12434 99.3595 349.85246 99.88633 348.52644 99.88633 347.2004 99.88633 345.92854 99.3595 344.99089 98.42186 344.05326 97.48423 343.52644 96.21234 343.52644 94.88633 343.52644 93.56031 344.05326 92.28843 344.99089 91.3508 345.92854 90.41316 347.2004 89.88633 348.52644 89.88633Z"/>
</g>
</g>
<g>
<path transform="matrix(1,0,0,-1,0,274.4703)" d="M222.39063 173.675H352.47187C354.33854 173.675 355.27189 174.60834 355.27189 176.475V252.3375C355.27189 254.20417 354.33854 255.1375 352.47187 255.1375H222.39063C220.52396 255.1375 219.59062 254.20417 219.59062 252.3375V176.475C219.59062 174.60834 220.52396 173.675 222.39063 173.675Z" fill="#ffffff" fill-opacity=".8"/>
<path transform="matrix(1,0,0,-1,0,274.4703)" stroke-width="1" stroke-linecap="butt" stroke-miterlimit="10" stroke-linejoin="miter" fill="none" stroke="#d5d6d5" stroke-opacity=".8" d="M222.39063 173.675H352.47187C354.33854 173.675 355.27189 174.60834 355.27189 176.475V252.3375C355.27189 254.20417 354.33854 255.1375 352.47187 255.1375H222.39063C220.52396 255.1375 219.59062 254.20417 219.59062 252.3375V176.475C219.59062 174.60834 220.52396 173.675 222.39063 173.675Z"/>
</g>
<path transform="matrix(1,0,0,-1,0,274.4703)" stroke-width="3" stroke-linecap="square" stroke-linejoin="round" fill="none" stroke="#4285f4" stroke-opacity=".2" d="M225.19063 244.6375H232.19063 239.19063"/>
<text xml:space="preserve" transform="matrix(1 0 -0 1 250.39063 34.732805)" font-size="13" font-family="Flama"><tspan y="0" x="0 8.502001 11.206001 18.928002 23.543002 30.771002 37.986 42.393">DiT-XL/2</tspan></text>
<path transform="matrix(1,0,0,-1,0,274.4703)" stroke-width="3" stroke-linecap="square" stroke-linejoin="round" fill="none" stroke="#4285f4" d="M225.19063 225.32187H232.19063 239.19063"/>
<text xml:space="preserve" transform="matrix(1 0 -0 1 250.39063 54.04843)" font-size="13" font-family="Flama"><tspan y="0" x="0 7.6180007 10.3220009 18.044 22.659 29.887001 37.102 41.509004">SiT-XL/2</tspan></text>
<path transform="matrix(1,0,0,-1,0,274.4703)" stroke-width="3" stroke-linecap="square" stroke-linejoin="round" fill="none" stroke="#ea4335" stroke-opacity=".2" d="M225.19063 206.00626H232.19063 239.19063"/>
<text xml:space="preserve" transform="matrix(1 0 -0 1 250.39063 73.36406)" font-size="13" font-family="Flama"><tspan y="0" x="0 8.905001 12.207001 19.955002 24.674002 32.500005 40.014005 44.551004 51.987005 55.237005 62.517004 65.767 74.229999 82.354999 90.545">DiT-XL/2 + REPA</tspan></text>
<path transform="matrix(1,0,0,-1,0,274.4703)" stroke-width="3" stroke-linecap="square" stroke-linejoin="round" fill="none" stroke="#ea4335" d="M225.19063 186.69063H232.19063 239.19063"/>
<text xml:space="preserve" transform="matrix(1 0 -0 1 250.39063 92.67969)" font-size="13" font-family="Flama"><tspan y="0" x="0 8.1380009 11.440001 19.188 23.907 31.733 39.247 43.784 51.22 54.47 61.75 65 73.463 81.588 89.778">SiT-XL/2 + REPA</tspan></text>
</svg>
